<?xml version="1.0" encoding="utf-8"?>
<!-- Svg Vector Icons : http://www.onlinewebfonts.com/icon -->
<!DOCTYPE svg PUBLIC "-//W3C//DTD SVG 1.1//EN" "http://www.w3.org/Graphics/SVG/1.1/DTD/svg11.dtd">
<svg version="1.1" xmlns="http://www.w3.org/2000/svg" xmlns:xlink="http://www.w3.org/1999/xlink" x="0px" y="0px" viewBox="0 0 1000 1000" enable-background="new 0 0 1000 1000" xml:space="preserve">
<metadata> Svg Vector Icons : http://www.onlinewebfonts.com/icon </metadata>
<g><path d="M398.6,332.7c-3.4-1-7.7-2.1-12.8-3.3c-5.1-1.2-9.5-2.3-13-3.3c-5.4-1.5-9.5-3.8-12.3-6.9c-2.8-3.2-4.2-7.4-4.2-12.8c0-5.9,2.4-10.7,7.2-14.4c4.8-3.6,11.1-5.5,18.9-5.5c6.9,0,13.5,1.4,19.7,4.1c6.3,2.7,11.4,5.9,15.4,9.6h1.3v-20.1c-5.4-2.6-11.2-4.6-17.5-6c-6.3-1.4-13-2.1-20-2.1c-12.4,0-22.6,3.5-30.5,10.4c-8,6.9-11.9,15.5-11.9,25.7c0,4.9,0.7,9.3,2.2,13c1.4,3.8,3.5,7,6.1,9.8c2.6,2.8,5.7,5.1,9.2,6.9c3.4,1.8,7.3,3.2,11.7,4.3c4.9,1.2,8.9,2.2,12.1,3c3.2,0.7,6.8,1.7,10.7,2.8c5.4,1.5,9.4,3.9,11.9,7c2.5,3.2,3.7,7.3,3.7,12.3c0,6.3-2.4,11.4-7.1,15.3c-4.7,3.9-11.8,5.8-21,5.8c-6.5,0-13.3-1.4-20.3-4.3c-7-2.8-13.3-6.9-18.8-12.1h-1.2v21c5.6,2.8,11.7,5.1,18.1,7c6.4,1.9,14.2,2.8,23.4,2.8c7.7,0,14.1-1,19.2-3c5.1-2,9.7-4.8,13.8-8.5c3.6-3.3,6.4-7.4,8.4-12.2c2-4.8,3-9.7,3-14.6c0-7.9-2-14.5-6-19.8C413.7,339.4,407.3,335.4,398.6,332.7z"/><path d="M521.5,390.4c7.9-5.2,14.1-12.4,18.8-21.7c4.7-9.3,7-19.7,7-31.2c0-12.3-2.2-22.9-6.7-31.8c-4.5-8.9-10.8-16-18.9-21.4c-4.7-3.1-10.5-5.6-17.3-7.3c-6.7-1.8-16.1-2.7-27.9-2.7h-28.7v126.2h29.1c10.2,0,18.6-0.7,25.2-2C508.7,397.1,515.1,394.4,521.5,390.4z M477.4,386.1h-12.8v-97.4h12.8c7.6,0,13.9,0.6,19,1.8c5.1,1.2,9.9,3.1,14.3,5.8c6.3,3.8,11.1,9.2,14.3,16.1c3.2,6.9,4.8,15.2,4.8,24.9c0,9.8-1.5,18-4.4,24.6c-3,6.6-7.3,11.9-13.1,15.8c-4.6,3.2-9.8,5.4-15.3,6.6C491.4,385.5,484.8,386.1,477.4,386.1z"/><path d="M589.2,350.1l7.4-8.3l46,58.7h21.8l-55.3-69.8l52.2-56.4h-20.4l-51.7,58.1v-58.1h-16.8v126.2h16.8V350.1z"/><path d="M747.5,387.6V182.4L500,38.1L252.5,182.4v207.2L10,529.3v288.3l247.5,144.2L500,820.5l242.5,141.3L990,817.6V529.4L747.5,387.6z M279.1,197.6L500,68.9l220.9,128.8v257.7L500,584.1L279.1,455.4V197.6z M257.5,931.1L36.6,802.4V544.7l215.9-124.5v50.4l225.9,131.7v200.1L257.5,931.1z M963.4,802.4L742.5,931.1L521.6,802.4V602.3l225.9-131.7v-52.2l215.9,126.2L963.4,802.4L963.4,802.4z"/><path d="M64.2,584.5l186.3,125l15.3,200l12.2-200l128.7-110l-140.9,86.3L64.2,584.5z"/><path d="M600.5,599.5l128.8,110l12.1,200l15.3-200l186.3-125L741.4,685.8L600.5,599.5z"/></g>
</svg>